<svg viewBox="0 0 109 78" fill="none" xmlns="http://www.w3.org/2000/svg"><path d="M19.3841 28.5793V20.0755C19.3841 15.2162 23.3849 11.2623 28.3019 11.2623C31.4495 11.2623 34 8.74108 34 5.63117C34 2.52126 31.4495 0 28.3019 0C17.101 0 7.98794 9.00613 7.98794 20.0755V28.5793C7.98794 29.412 7.53437 30.1883 6.80502 30.6043L3.95446 32.2306C1.51493 33.6226 0 36.216 0 39C0 41.7833 1.51493 44.3774 3.95446 45.7687L6.80502 47.3957C7.53437 47.8117 7.98794 48.588 7.98794 49.4207V57.9245C7.98794 68.9946 17.101 78 28.3019 78C31.4495 78 34 75.4787 34 72.3688C34 69.2589 31.4495 66.7377 28.3019 66.7377C23.3841 66.7377 19.3841 62.7838 19.3841 57.9245V49.4199C19.3841 45.3737 17.544 41.5581 14.464 39C17.544 36.4412 19.3841 32.6255 19.3841 28.5793Z" fill="#0FAF6C"/><path d="M89.6159 49.4207V57.9245C89.6159 62.7846 85.6151 66.7377 80.6981 66.7377C77.5505 66.7377 75 69.2589 75 72.3688C75 75.4787 77.5505 78 80.6981 78C91.8989 78 101.012 68.9939 101.012 57.9245V49.4207C101.012 48.588 101.466 47.8117 102.195 47.3957L105.046 45.7694C107.485 44.3774 109 41.7833 109 39C109 36.2159 107.485 33.6219 105.046 32.2306L102.195 30.6043C101.466 30.1883 101.012 29.412 101.012 28.5793V20.0755C101.012 9.00612 91.8989 0 80.6981 0C77.5505 0 75 2.52126 75 5.63117C75 8.74108 77.5505 11.2623 80.6981 11.2623C85.6159 11.2623 89.6159 15.2162 89.6159 20.0755V28.5793C89.6159 32.6255 91.456 36.4412 94.536 38.9993C91.456 41.5588 89.6159 45.3745 89.6159 49.4207Z" fill="#0FAF6C"/></svg>