<svg viewBox="0 0 88 129" fill="none" xmlns="http://www.w3.org/2000/svg" class="icon-git"><path d="M79.1718 0.941101H63.3933C58.7143 0.941101 54.9076 4.74785 54.9076 9.42685V25.2054C54.9076 29.8844 58.7143 33.6911 63.3933 33.6911H65.3988L56.1041 53.6434C52.5533 61.2659 44.8253 66.1911 36.4163 66.1911H20.7826V33.6911H24.9218C29.6008 33.6911 33.4076 29.8844 33.4076 25.2054V9.42685C33.4076 4.74785 29.6008 0.941101 24.9218 0.941101H9.14334C4.46434 0.941101 0.657593 4.74785 0.657593 9.42685V25.2054C0.657593 29.8844 4.46434 33.6911 9.14334 33.6911H13.2826V96.1911H9.14334C4.46434 96.1911 0.657593 99.9978 0.657593 104.677V120.455C0.657593 125.134 4.46434 128.941 9.14334 128.941H24.9218C29.6008 128.941 33.4076 125.134 33.4076 120.455V104.677C33.4076 99.9978 29.6008 96.1911 24.9218 96.1911H20.7826V73.6911H36.4163C47.7291 73.6911 58.1256 67.0651 62.9026 56.8104L73.6726 33.6911H79.1718C83.8508 33.6911 87.6576 29.8844 87.6576 25.2054V9.42685C87.6576 4.74785 83.8508 0.941101 79.1718 0.941101ZM8.15759 25.2054V9.42685C8.15759 8.88335 8.59984 8.4411 9.14334 8.4411H24.9218C25.4653 8.4411 25.9076 8.88335 25.9076 9.42685V25.2054C25.9076 25.7489 25.4653 26.1911 24.9218 26.1911H9.14334C8.59984 26.1911 8.15759 25.7489 8.15759 25.2054ZM25.9076 104.677V120.455C25.9076 120.999 25.4653 121.441 24.9218 121.441H9.14334C8.59984 121.441 8.15759 120.999 8.15759 120.455V104.677C8.15759 104.133 8.59984 103.691 9.14334 103.691H24.9218C25.4653 103.691 25.9076 104.133 25.9076 104.677ZM80.1576 25.2054C80.1576 25.7489 79.7153 26.1911 79.1718 26.1911H63.3933C62.8498 26.1911 62.4076 25.7489 62.4076 25.2054V9.42685C62.4076 8.88335 62.8498 8.4411 63.3933 8.4411H79.1718C79.7153 8.4411 80.1576 8.88335 80.1576 9.42685V25.2054Z" fill="white"/></svg>