<svg viewBox="0 0 128 91" fill="none" xmlns="http://www.w3.org/2000/svg"><path d="M79.3301 63.6009C83.2423 69.9887 88.3323 74.6842 97.3345 74.6842C104.897 74.6842 109.728 70.9045 109.728 65.682C109.728 59.4236 104.764 57.2071 96.4404 53.5661L91.8773 51.6083C78.7072 45.9974 69.9576 38.9682 69.9576 24.1085C69.9576 10.4202 80.3873 0 96.6866 0C108.291 0 116.633 4.0385 122.645 14.6131L108.433 23.7386C105.303 18.1277 101.928 15.9173 96.6866 15.9173C91.3409 15.9173 87.9526 19.3086 87.9526 23.7386C87.9526 29.2141 91.3439 31.4306 99.1744 34.8219L103.737 36.7763C119.244 43.4262 128 50.2055 128 65.4476C128 81.8797 115.091 90.8819 97.756 90.8819C80.8061 90.8819 69.8556 82.8045 64.4973 72.2177L79.3301 63.6009ZM14.8567 65.1824C17.7237 70.2694 20.3321 74.5701 26.6027 74.5701C32.599 74.5701 36.3818 72.2238 36.3818 63.1017V1.04206H54.6328V63.3479C54.6328 82.2461 43.5529 90.8477 27.3796 90.8477C12.7665 90.8477 4.30404 83.2851 0 74.1767L14.8567 65.1824Z" fill="#FFDF00"/></svg>