<svg viewBox="0 0 137 137" fill="none" xmlns="http://www.w3.org/2000/svg"><path d="M66.5736 35.25L69.1353 27.3657C69.6376 25.8207 69.0876 24.128 67.7731 23.173L36.8638 0.716246C35.5498 -0.238504 33.7696 -0.238504 32.4556 0.716246L1.54606 23.1732C0.231558 24.1282 -0.318192 25.8207 0.183808 27.366L11.9903 63.7022C12.4923 65.2472 13.9323 66.2935 15.5568 66.2935H32.5003V46.5C32.5003 40.2967 37.5471 35.25 43.7503 35.25H66.5736Z" fill="#FF49E2"/><path d="M99.0677 62.6354C100.74 62.6354 102.387 62.7512 104 62.9707V46.4999C104 44.4289 102.321 42.7499 100.25 42.7499H43.75C41.679 42.7499 40 44.4289 40 46.4999V103C40 105.071 41.679 106.75 43.75 106.75H63.4533C62.9193 104.272 62.6355 101.703 62.6355 99.0677C62.6358 78.9787 78.9792 62.6354 99.0677 62.6354Z" fill="#FF49E2"/><path d="M110.192 125.782C124.956 119.662 131.964 102.732 125.844 87.9672C119.724 73.2027 102.794 66.1949 88.0299 72.3148C73.2655 78.4347 66.2577 95.3648 72.3776 110.129C78.4975 124.894 95.4276 131.902 110.192 125.782Z" fill="#FF49E2"/></svg>