<svg viewBox="0 0 32 32" fill="none" xmlns="http://www.w3.org/2000/svg"><path d="M64 0C28.6273 0 0 28.624 0 64C0 99.3722 28.624 128 64 128C99.3727 128 128 99.376 128 64C128 28.6278 99.376 0 64 0ZM64 119.07C33.6345 119.07 8.93025 94.3657 8.93025 64C8.93025 33.6343 33.6345 8.93025 64 8.93025C94.3655 8.93025 119.07 33.6343 119.07 64C119.07 94.3657 94.3655 119.07 64 119.07Z" fill="#5A84EE"/><path d="M64.0015 53.3492C60.2105 53.3492 57.5148 54.9502 57.5148 57.309V89.4055C57.5148 91.4275 60.2105 93.449 64.0015 93.449C67.624 93.449 70.5723 91.4275 70.5723 89.4055V57.3085C70.5723 54.95 67.624 53.3492 64.0015 53.3492Z" fill="#5A84EE"/><path d="M64.0015 33.552C60.1263 33.552 57.0938 36.332 57.0938 39.5333C57.0938 42.7348 60.1265 45.599 64.0015 45.599C67.7925 45.599 70.8255 42.7348 70.8255 39.5333C70.8255 36.332 67.7923 33.552 64.0015 33.552Z" fill="#5A84EE"/></svg>
